<?xml version="1.0" standalone="no"?>
<!DOCTYPE svg PUBLIC "-//W3C//DTD SVG 20010904//EN"
 "http://www.w3.org/TR/2001/REC-SVG-20010904/DTD/svg10.dtd">
<svg version="1.0" xmlns="http://www.w3.org/2000/svg"
 width="518.000000pt" height="518.000000pt" viewBox="0 0 518.000000 518.000000"
 preserveAspectRatio="xMidYMid meet">

<g transform="translate(0.000000,518.000000) scale(0.100000,-0.100000)"
fill="#000000" stroke="none">
<path d="M2350 5169 c-599 -57 -1163 -322 -1590 -749 -207 -206 -360 -421
-490 -685 -121 -247 -192 -465 -234 -715 -73 -439 -30 -909 119 -1315 52 -142
182 -402 263 -525 565 -864 1583 -1313 2597 -1145 798 133 1495 639 1870 1358
184 351 277 708 292 1112 12 320 -41 662 -149 960 -53 149 -182 407 -266 535
-527 807 -1462 1259 -2412 1169z m398 -134 c5 -4 -782 -508 -798 -511 -8 -1
-41 -5 -74 -8 l-58 -5 68 72 c38 40 152 157 253 261 l185 189 116 7 c97 6 299
2 308 -5z m317 -36 c142 -28 289 -71 273 -79 -33 -18 -1221 -401 -1235 -398
-9 2 159 116 373 255 l389 252 50 -5 c28 -3 95 -14 150 -25z m-955 -86 c-302
-314 -421 -429 -455 -442 -20 -7 -39 -11 -41 -8 -4 3 181 445 189 454 6 5 192
57 267 73 146 32 146 33 40 -77z m-402 -42 c-1 -4 -46 -108 -98 -230 l-95
-222 -49 -30 c-26 -17 -51 -28 -54 -24 -9 8 59 398 72 413 12 12 204 102 219
102 5 0 7 -4 5 -9z m1833 -17 c108 -44 269 -130 384 -206 l110 -72 -848 -57
c-715 -48 -854 -55 -889 -44 -23 6 -37 14 -32 17 5 3 218 74 474 158 256 84
517 169 580 190 63 21 124 39 136 39 11 1 49 -11 85 -25z m-2179 -340 l-37
-220 -38 -34 c-21 -18 -39 -31 -41 -29 -2 2 -6 95 -8 205 l-5 201 81 50 c45
28 82 50 83 49 1 -1 -15 -101 -35 -222z m-209 -394 c-13 -19 -39 -57 -56 -84
-17 -27 -32 -45 -33 -40 -10 33 -54 466 -49 474 4 6 39 35 78 65 l72 54 7
-217 7 -217 -26 -35z m3077 296 c155 -138 286 -290 404 -470 79 -120 155 -254
114 -201 -12 17 -39 47 -58 67 l-35 37 -1040 246 c-838 199 -1050 252 -1090
275 -46 26 -47 29 -25 34 14 3 250 19 525 37 275 17 610 39 745 49 135 9 270
18 300 19 l55 1 105 -94z m-2564 -23 c-3 -27 -11 -76 -17 -110 l-11 -62 -170
-109 -170 -109 -71 22 c-39 13 -73 27 -75 33 -5 16 162 186 237 242 66 48 241
139 270 140 11 0 12 -11 7 -47z m-686 -269 c24 -211 28 -268 19 -295 -7 -19
-15 -37 -18 -41 -7 -8 -181 449 -181 474 0 21 144 155 147 137 2 -8 16 -132
33 -275z m1524 221 c83 -50 176 -126 228 -187 52 -61 151 -209 144 -216 -3 -2
-43 -12 -90 -22 l-84 -17 -130 131 -130 131 -4 108 c-3 59 -2 107 2 107 3 0
32 -16 64 -35z m-1656 -418 c89 -238 102 -281 101 -333 0 -32 -3 -66 -7 -75
-5 -13 -53 45 -181 219 -96 130 -176 244 -178 252 -3 14 142 210 156 210 3 0
52 -123 109 -273z m991 169 l168 -85 -26 -151 -26 -152 -161 -99 -161 -99
-124 56 c-68 30 -133 59 -145 64 -28 11 -34 46 -34 205 l0 133 163 105 c89 58
165 106 170 106 4 1 83 -37 176 -83z m2060 -586 c608 -352 1112 -644 1120
-649 11 -7 16 -44 21 -142 9 -174 4 -229 -21 -229 -10 0 -497 346 -1081 769
-928 670 -1069 776 -1111 830 -27 33 -45 61 -41 61 4 0 505 -288 1113 -640z
m-1361 489 c64 -61 118 -117 120 -125 3 -14 -63 -280 -76 -302 -4 -8 -72 -37
-152 -66 l-145 -53 -89 81 c-48 44 -108 99 -133 121 l-44 40 21 145 c12 80 25
152 29 160 7 13 292 106 334 109 10 1 69 -48 135 -110z m-1789 -359 c192 -260
208 -285 220 -342 7 -34 21 -84 32 -112 10 -27 18 -51 16 -52 -2 -3 -538 473
-587 521 l-34 34 18 38 c30 63 118 205 123 199 3 -3 99 -132 212 -286z m2906
-695 l638 -740 -233 -3 c-179 -2 -237 1 -246 10 -6 7 -190 327 -409 711 -295
520 -398 709 -402 740 -4 28 -2 39 4 32 6 -5 297 -343 648 -750z m-2902 330
c173 -154 313 -281 312 -283 -2 -2 -765 434 -773 443 -5 5 15 66 45 133 l23
53 40 -33 c21 -18 180 -159 353 -313z m713 236 l138 -58 42 -168 43 -169 -26
-30 c-14 -17 -57 -64 -96 -104 l-70 -73 -136 51 c-75 28 -141 54 -148 58 -7 4
-30 80 -51 169 l-39 161 96 110 c53 61 99 111 102 112 3 0 68 -26 145 -59z
m1199 -102 c33 -49 64 -96 69 -103 6 -9 -7 -58 -40 -149 l-49 -135 -143 -71
c-78 -39 -148 -71 -155 -70 -6 0 -51 52 -99 115 l-86 115 55 132 c30 73 58
136 62 140 11 11 291 115 311 116 8 0 42 -40 75 -90z m739 -618 c179 -315 326
-577 326 -582 0 -11 -317 -12 -324 -1 -6 10 -346 1158 -346 1169 0 17 33 -40
344 -586z m-2327 545 c1 -1 20 -74 44 -163 57 -221 43 -255 -39 -88 -41 83
-65 149 -81 223 l-9 43 41 -6 c23 -4 43 -8 44 -9z m2092 -575 c89 -299 161
-547 161 -552 0 -15 -240 -11 -245 4 -2 6 -20 233 -40 502 -19 270 -37 515
-41 545 -3 30 -4 53 -1 50 3 -3 78 -250 166 -549z m-221 502 c-23 -86 -72
-197 -118 -268 -27 -41 -53 -75 -58 -75 -4 0 -24 19 -44 43 l-35 43 47 129 47
130 64 17 c35 9 74 17 86 17 20 1 21 -1 11 -36z m-924 -190 l107 -6 68 -91
c37 -50 75 -103 85 -118 l18 -27 -69 -122 -68 -121 -160 6 c-88 4 -187 9 -220
12 l-60 6 -94 130 -94 130 44 46 c24 26 68 73 99 105 l54 57 92 0 c50 0 139
-3 198 -7z m817 -453 l-57 -415 -94 -3 c-51 -1 -96 1 -100 5 -4 4 39 156 95
337 95 305 106 335 156 412 30 45 55 82 55 81 1 -1 -24 -189 -55 -417z m-2059
199 c524 -122 611 -145 666 -175 34 -19 62 -36 62 -37 0 -2 -307 25 -682 58
l-683 60 1 60 c1 84 14 175 24 175 5 0 280 -63 612 -141z m2203 -207 c14 -189
25 -358 25 -378 l0 -35 -77 3 c-62 2 -78 6 -77 18 2 34 99 739 101 736 1 -1
14 -156 28 -344z m-390 -132 c-47 -150 -85 -274 -85 -276 0 -2 -36 -4 -80 -4
-53 0 -80 4 -80 11 0 27 264 501 293 525 16 13 31 23 33 21 2 -2 -34 -126 -81
-277z m-126 108 c-41 -81 -201 -373 -208 -381 -4 -4 -54 -6 -111 -5 l-103 3
144 175 c139 169 147 176 219 212 41 20 76 37 78 37 1 1 -7 -18 -19 -41z
m-721 -63 c35 -9 103 -19 152 -23 l89 -7 -278 -148 -277 -147 -635 2 c-540 3
-634 5 -634 17 0 11 181 53 745 172 410 86 752 156 760 154 8 -2 43 -11 78
-20z m462 -11 c0 -3 -57 -75 -127 -160 l-127 -154 -180 0 c-118 0 -177 3 -170
10 5 5 135 77 289 159 250 134 315 164 315 145z m2790 -388 c0 -32 -70 -288
-104 -381 -57 -155 -167 -369 -265 -516 -354 -531 -892 -898 -1522 -1039 -236
-53 -591 -68 -833 -35 -999 134 -1810 850 -2062 1820 -19 72 -34 138 -34 148
0 16 121 17 2410 17 2066 0 2410 -2 2410 -14z"/>
<path d="M2500 1900 l0 -170 -57 0 c-53 0 -58 2 -90 40 -32 37 -39 40 -85 40
-45 0 -53 -3 -85 -40 -36 -40 -37 -40 -110 -40 l-73 0 0 70 0 70 -190 0 -190
0 0 25 c0 22 -4 25 -35 25 l-35 0 0 -95 0 -95 -80 0 -80 0 0 70 0 70 -30 0
-30 0 0 -175 0 -175 -80 0 -80 0 0 -35 0 -35 110 0 110 0 0 105 0 105 384 0
384 0 12 -30 c17 -42 47 -60 96 -60 46 0 97 33 109 70 6 18 16 20 96 20 l89 0
0 205 0 205 -30 0 -30 0 0 -170z m-570 -135 l0 -35 -155 0 -155 0 0 35 0 35
155 0 155 0 0 -35z m368 -37 c7 -7 12 -21 12 -33 0 -12 -5 -26 -12 -33 -29
-29 -78 -7 -78 35 0 36 52 57 78 31z"/>
<path d="M2650 1865 l0 -205 30 0 30 0 0 205 0 205 -30 0 -30 0 0 -205z"/>
<path d="M3290 1865 l0 -205 360 0 360 0 0 100 0 100 -35 0 -35 0 0 -65 0 -65
-100 0 -100 0 0 65 0 65 -115 0 -115 0 0 -30 0 -29 83 -3 82 -3 0 -30 0 -30
-162 -3 -163 -2 0 170 0 170 -30 0 -30 0 0 -205z"/>
<path d="M4160 1900 l0 -170 -45 0 c-45 0 -45 0 -45 -35 l0 -35 155 0 155 0 0
205 0 205 -30 0 -30 0 0 -170 0 -170 -50 0 -50 0 0 170 0 170 -30 0 -30 0 0
-170z"/>
<path d="M4480 1865 l0 -205 30 0 30 0 0 205 0 205 -30 0 -30 0 0 -205z"/>
<path d="M3790 1965 c0 -20 5 -25 25 -25 20 0 25 5 25 25 0 20 -5 25 -25 25
-20 0 -25 -5 -25 -25z"/>
<path d="M3900 1965 c0 -18 5 -25 20 -25 15 0 20 7 20 25 0 18 -5 25 -20 25
-15 0 -20 -7 -20 -25z"/>
<path d="M890 1795 l0 -105 75 0 75 0 0 -35 0 -35 -125 0 -125 0 0 105 0 105
-35 0 -35 0 0 -135 0 -135 195 0 195 0 0 100 0 100 -75 0 -75 0 0 40 0 40 75
0 75 0 0 30 0 30 -110 0 -110 0 0 -105z"/>
<path d="M3100 1835 c0 -31 3 -35 26 -35 23 0 25 -3 22 -32 l-3 -33 -67 -3
-68 -3 0 -34 0 -35 100 0 100 0 0 105 0 105 -55 0 -55 0 0 -35z"/>
<path d="M2320 1360 l0 -170 -85 0 -85 0 0 65 0 65 -110 0 -110 0 0 -65 0 -65
-75 0 -75 0 0 65 0 65 -55 0 c-54 0 -55 0 -55 -30 0 -23 4 -30 20 -30 16 0 20
-7 20 -35 l0 -35 -65 0 -65 0 0 -35 0 -35 400 0 400 0 0 205 0 205 -30 0 -30
0 0 -170z m-240 -140 c0 -28 -2 -30 -40 -30 -38 0 -40 2 -40 30 0 28 2 30 40
30 38 0 40 -2 40 -30z"/>
<path d="M2480 1325 l0 -205 35 0 35 0 0 205 0 205 -35 0 -35 0 0 -205z"/>
<path d="M4100 1360 l0 -170 -85 0 -85 0 0 70 0 70 -175 0 -175 0 0 35 0 35
140 0 140 0 0 35 0 35 -170 0 -170 0 0 -105 0 -105 175 0 175 0 0 -35 0 -35
-260 0 -260 0 0 65 0 65 -35 0 -35 0 0 -175 0 -175 -75 0 -75 0 0 -30 0 -30
110 0 110 0 0 105 0 105 410 0 410 0 0 205 0 205 -35 0 -35 0 0 -170z"/>
<path d="M850 1485 c0 -20 5 -25 25 -25 20 0 25 5 25 25 0 20 -5 25 -25 25
-20 0 -25 -5 -25 -25z"/>
<path d="M950 1485 c0 -20 5 -25 25 -25 20 0 25 5 25 25 0 20 -5 25 -25 25
-20 0 -25 -5 -25 -25z"/>
<path d="M2900 1455 c0 -20 5 -25 25 -25 20 0 25 5 25 25 0 20 -5 25 -25 25
-20 0 -25 -5 -25 -25z"/>
<path d="M3000 1455 c0 -20 5 -25 25 -25 20 0 25 5 25 25 0 20 -5 25 -25 25
-20 0 -25 -5 -25 -25z"/>
<path d="M1960 1425 c0 -20 5 -25 25 -25 20 0 25 5 25 25 0 20 -5 25 -25 25
-20 0 -25 -5 -25 -25z"/>
<path d="M2060 1425 c0 -20 5 -25 25 -25 20 0 25 5 25 25 0 20 -5 25 -25 25
-20 0 -25 -5 -25 -25z"/>
<path d="M2988 1353 c-3 -27 -5 -28 -75 -31 l-73 -3 0 -99 0 -100 105 0 105 0
0 130 0 130 -29 0 c-25 0 -30 -4 -33 -27z m0 -130 c3 -33 3 -33 -42 -33 -44 0
-46 1 -46 28 0 38 7 44 50 40 31 -3 35 -6 38 -35z"/>
<path d="M1287 1250 c-14 -11 -29 -29 -32 -40 -5 -17 -15 -20 -61 -20 l-54 0
0 -175 0 -175 35 0 35 0 0 140 c0 117 2 140 15 140 8 0 21 -13 30 -29 22 -44
53 -61 108 -61 42 0 54 5 83 34 30 30 34 40 34 86 0 46 -4 56 -34 86 -30 30
-41 34 -84 34 -34 0 -57 -6 -75 -20z m97 -63 c12 -9 17 -23 14 -42 -2 -24 -8
-31 -31 -33 -50 -6 -75 38 -41 72 19 19 35 20 58 3z"/>
<path d="M1320 808 c-41 -73 -76 -137 -78 -142 -1 -9 129 -89 167 -104 4 -1
13 9 19 22 12 28 11 30 -55 66 -48 26 -51 34 -24 69 l18 24 51 -29 c51 -28 52
-28 66 -9 9 11 16 23 16 26 0 3 -22 18 -50 33 -53 29 -56 35 -40 67 14 25 20
24 79 -10 l50 -30 16 26 c9 13 15 26 13 27 -9 7 -167 96 -170 96 -2 0 -37 -59
-78 -132z"/>
<path d="M3553 788 c-18 -9 -23 -19 -22 -47 1 -70 25 -290 32 -297 4 -4 18 -2
32 4 20 9 25 19 25 47 0 33 3 37 53 59 l52 23 26 -24 c26 -24 28 -24 59 -8
l33 17 -119 119 c-65 65 -126 119 -134 118 -8 0 -25 -5 -37 -11z m127 -160 c0
-9 -60 -41 -67 -35 -2 3 -7 31 -10 63 l-6 59 42 -40 c22 -21 41 -43 41 -47z"/>
<path d="M1569 767 c-19 -12 -44 -42 -57 -67 -59 -115 19 -239 151 -240 l48 0
28 63 28 62 -31 16 c-61 32 -73 32 -80 3 -5 -20 -3 -30 8 -36 22 -12 8 -38
-21 -38 -33 0 -83 51 -83 85 0 34 25 82 49 95 39 20 87 12 134 -24 l45 -34 12
29 c15 36 0 58 -64 89 -57 27 -124 26 -167 -3z"/>
<path d="M3363 713 c-40 -13 -73 -30 -73 -36 0 -6 21 -76 47 -155 47 -139 48
-143 73 -137 40 10 41 18 20 80 -11 32 -19 59 -18 60 2 1 27 10 56 20 50 16
53 19 47 44 -4 14 -8 27 -9 29 -2 1 -28 -7 -60 -18 l-57 -19 -10 26 c-14 38
-7 48 45 63 53 15 57 18 49 48 -7 27 -20 27 -110 -5z"/>
<path d="M1820 718 c0 -7 11 -51 25 -98 l24 -85 -21 -68 c-23 -70 -21 -79 19
-91 20 -7 24 -1 45 66 20 67 28 78 86 128 35 30 67 56 71 58 5 1 -5 -63 -21
-143 -16 -81 -28 -148 -26 -149 2 -2 18 -6 36 -9 24 -5 32 -3 32 8 0 8 5 36
11 64 l10 49 54 -5 c49 -5 56 -3 79 22 15 16 26 40 26 56 0 28 2 29 51 29 l52
0 -7 -77 c-3 -43 -9 -104 -13 -135 l-6 -58 35 0 35 0 7 73 c4 39 9 98 13 130
l6 57 48 -6 c46 -6 48 -6 52 22 2 16 5 -42 6 -128 l1 -158 29 0 c37 0 41 20
41 190 l0 127 -102 6 c-57 4 -133 10 -170 13 -66 7 -68 6 -68 -16 0 -21 -1
-21 -28 8 -19 20 -41 32 -72 36 -25 4 -73 14 -108 23 l-63 15 -41 -37 c-45
-41 -52 -38 -64 28 -5 32 -12 41 -40 53 -41 17 -44 17 -44 2z m361 -148 c23
-13 26 -58 4 -66 -8 -4 -26 -3 -39 0 -19 5 -23 11 -19 28 11 53 17 57 54 38z"/>
<path d="M3155 650 c-34 -6 -34 -12 -10 -127 7 -35 10 -63 8 -63 -3 0 -43 35
-90 77 -68 63 -90 77 -111 74 -15 -1 -29 -5 -31 -7 -2 -2 9 -74 24 -159 26
-141 30 -155 49 -155 45 0 48 11 31 104 -9 48 -14 90 -12 93 3 3 43 -32 90
-76 46 -45 93 -81 103 -81 42 0 43 9 13 169 -16 85 -30 155 -32 156 -1 1 -15
-1 -32 -5z"/>
<path d="M2739 593 c-11 -3 -29 -51 -59 -164 -24 -88 -41 -162 -38 -164 3 -3
19 -2 36 1 23 5 32 13 37 34 6 29 33 40 100 40 27 0 35 -5 45 -30 10 -25 18
-30 46 -30 19 0 34 3 34 8 0 4 -30 76 -67 159 -72 162 -73 163 -134 146z m76
-182 c6 -19 3 -21 -34 -21 -23 0 -41 3 -41 8 0 8 18 78 26 102 5 14 31 -35 49
-89z"/>
</g>
</svg>
